<?xml version="1.0" standalone="no"?>
<!DOCTYPE svg PUBLIC "-//W3C//DTD SVG 20010904//EN"
 "http://www.w3.org/TR/2001/REC-SVG-20010904/DTD/svg10.dtd">
<svg version="1.0" xmlns="http://www.w3.org/2000/svg"
 width="500.000000pt" height="500.000000pt" viewBox="0 0 500.000000 500.000000"
 preserveAspectRatio="xMidYMid meet">

<g transform="translate(0.000000,500.000000) scale(0.100000,-0.100000)"
fill="#000000" stroke="none">
<path d="M1368 4864 c-33 -18 -35 -42 -9 -93 11 -20 30 -58 42 -86 12 -27 38
-86 59 -130 21 -45 42 -93 45 -108 4 -15 11 -27 16 -27 5 0 9 -5 9 -11 0 -6
34 -80 75 -165 41 -85 75 -158 75 -163 0 -5 11 -31 24 -58 29 -59 76 -168 76
-177 0 -13 -18 -5 -24 12 -3 9 -14 29 -23 43 -10 15 -27 41 -38 58 -10 17 -25
31 -33 31 -7 0 -12 7 -10 16 5 27 -18 27 -30 0 -6 -14 -18 -23 -29 -23 -11 1
-18 -4 -17 -15 1 -10 -5 -18 -13 -18 -11 0 -14 7 -11 24 4 21 3 23 -14 13 -19
-12 -24 -27 -9 -27 4 0 6 -12 3 -27 l-6 -28 -8 32 c-6 23 -13 31 -24 26 -8 -3
-13 -11 -10 -19 3 -8 -5 -14 -21 -16 -15 -2 -28 -10 -30 -18 -4 -13 -3 -13 6
0 6 8 11 10 11 4 0 -6 -11 -21 -25 -34 -14 -13 -25 -32 -25 -42 0 -10 -7 -18
-15 -18 -9 0 -20 -11 -27 -25 -6 -13 -15 -22 -19 -19 -5 3 -9 -7 -9 -21 0 -27
-23 -59 -34 -48 -3 4 -6 2 -6 -4 0 -5 -9 -20 -19 -32 -11 -13 -17 -29 -14 -37
3 -7 -2 -17 -11 -20 -9 -3 -16 -12 -16 -19 0 -7 -6 -16 -12 -18 -10 -4 -10 -6
-1 -6 14 -1 -27 -45 -50 -54 -8 -3 -20 0 -26 6 -6 6 -14 8 -17 4 -9 -9 3 -37
16 -37 6 0 9 4 6 8 -3 5 2 9 10 9 8 0 13 -5 11 -11 -2 -6 -16 -10 -30 -9 -20
1 -24 -2 -20 -14 5 -13 2 -15 -11 -10 -16 6 -17 3 -11 -33 7 -39 1 -46 -29
-41 -10 2 -26 -18 -26 -32 0 -5 6 -5 13 -1 7 4 8 3 4 -2 -5 -5 -16 -9 -25 -9
-13 0 -17 -8 -15 -38 2 -23 -1 -35 -7 -32 -6 3 -10 2 -10 -3 0 -17 -31 -22
-46 -8 -18 18 -18 31 0 49 8 8 22 29 31 48 28 61 46 89 55 89 5 0 12 9 15 20
3 11 12 26 19 32 6 7 19 29 28 49 10 19 28 46 41 60 12 14 21 31 19 37 -2 7 1
12 7 12 6 0 11 6 11 13 0 7 9 23 20 35 11 12 20 24 20 28 0 3 9 17 20 31 11
14 20 36 20 49 0 13 5 24 10 24 6 0 10 8 10 17 0 9 12 30 28 46 15 17 21 26
13 22 -9 -5 -12 -4 -7 3 4 7 14 12 23 12 11 0 14 7 11 24 -3 17 0 23 11 22 8
0 16 4 16 9 0 6 4 16 8 23 5 6 5 16 2 22 -3 5 0 8 7 5 14 -5 38 37 38 66 0 19
26 33 35 19 4 -6 2 -10 -3 -10 -12 0 -34 -49 -26 -61 9 -16 22 0 17 21 -4 14
0 20 12 20 13 0 16 5 11 20 -20 66 -20 63 2 58 21 -6 35 5 38 27 0 6 2 15 2
22 1 7 9 10 17 7 11 -4 15 0 15 16 0 36 -39 157 -66 205 -13 24 -24 51 -24 59
0 9 -4 16 -8 16 -5 0 -17 18 -28 40 -21 45 -40 51 -55 18 -5 -13 -16 -34 -24
-48 -8 -14 -15 -34 -15 -45 0 -11 -12 -38 -25 -60 -14 -22 -25 -48 -25 -57 0
-10 -4 -18 -10 -18 -5 0 -10 -6 -10 -13 0 -8 -18 -51 -40 -96 -22 -45 -40 -85
-40 -89 0 -5 -9 -26 -19 -48 -11 -22 -23 -54 -27 -70 -4 -16 -12 -36 -19 -44
-7 -8 -16 -26 -20 -40 -9 -33 -38 -93 -49 -101 -5 -4 -6 -11 -3 -16 3 -5 0
-22 -7 -38 -15 -35 -40 -96 -91 -220 -40 -97 -75 -177 -106 -240 -10 -22 -19
-45 -19 -51 0 -20 -43 -118 -70 -159 -15 -22 -33 -53 -42 -70 -62 -126 -145
-255 -164 -255 -7 0 -22 9 -33 21 -21 23 -79 136 -87 171 -8 35 -3 223 6 223
1 0 4 13 6 29 2 16 7 32 12 35 5 3 12 20 15 36 l5 30 -34 -40 c-18 -22 -34
-43 -34 -48 0 -6 -40 -73 -62 -102 -25 -33 -112 -173 -153 -245 -26 -47 -56
-94 -66 -105 -9 -11 -27 -42 -39 -70 -26 -60 -23 -98 15 -180 15 -33 35 -80
45 -105 51 -128 183 -383 221 -428 6 -7 16 -23 23 -35 6 -12 24 -41 39 -64 15
-24 27 -47 27 -52 0 -5 6 -14 13 -20 8 -6 20 -30 28 -53 7 -24 20 -48 29 -55
8 -6 12 -14 9 -18 -4 -3 4 -18 18 -33 13 -15 33 -45 44 -67 23 -50 39 -69 61
-78 10 -3 18 -16 18 -27 0 -14 7 -20 24 -20 13 0 27 -7 30 -16 5 -13 9 -14 21
-4 8 7 16 10 16 6 1 -3 2 -10 3 -15 2 -18 16 -24 28 -13 9 7 19 6 32 -4 25
-18 56 -20 38 -2 -9 9 -5 17 16 35 34 29 40 29 48 -1 6 -25 41 -33 41 -10 0 7
-3 13 -6 12 -29 -3 -33 3 -17 21 23 25 32 143 10 134 -17 -6 -19 13 -1 20 9 4
8 8 -3 16 -12 9 -12 11 3 17 9 3 17 10 17 16 0 5 -4 7 -9 4 -11 -7 -25 49 -17
63 4 5 2 12 -4 16 -17 10 -11 25 10 25 26 0 25 11 -2 40 -17 18 -18 22 -5 17
23 -9 23 17 0 41 -26 27 -25 39 3 46 32 8 26 30 -10 34 l-27 3 23 18 22 18
-22 7 c-25 8 -29 34 -7 42 8 4 12 10 9 15 -3 5 -3 9 1 9 3 0 10 -10 15 -23 8
-17 8 -14 4 16 -5 30 -4 36 9 32 9 -4 16 1 20 15 5 18 9 19 34 9 22 -8 26 -8
16 2 -7 7 -13 17 -13 21 0 5 6 8 13 7 33 -4 57 2 57 16 0 16 12 20 23 8 4 -3
2 -12 -5 -20 -13 -17 -6 -26 15 -17 9 3 13 12 10 20 -3 8 1 14 10 14 8 0 17
-6 20 -12 2 -7 8 -9 13 -5 4 4 0 21 -10 38 -17 29 -17 31 1 44 24 19 37 19 30
0 -4 -8 -2 -17 3 -20 5 -3 10 7 12 22 4 35 28 43 28 9 0 -36 19 -33 27 4 6 32
39 72 87 105 16 11 37 28 48 38 10 9 21 17 26 17 4 -1 8 8 10 18 2 15 9 18 30
14 22 -4 25 -2 15 9 -19 19 -16 29 9 29 25 0 98 73 98 98 0 13 3 12 20 -3 19
-18 20 -17 20 3 0 12 -5 22 -11 22 -5 0 -7 5 -4 10 3 6 20 10 36 10 17 0 28 4
24 10 -3 5 7 17 22 27 39 26 73 59 73 71 0 6 17 21 38 33 20 13 43 29 50 36 8
7 18 10 24 7 7 -5 9 0 6 14 -9 33 15 46 38 21 10 -12 18 -23 16 -26 -2 -3 -1
-7 2 -11 12 -11 5 24 -8 43 -12 17 -12 22 0 33 12 10 14 10 14 -2 0 -31 19
-25 37 11 14 30 23 37 41 35 20 -3 28 10 23 40 0 4 10 3 24 -2 21 -8 25 -7 25
10 0 22 15 27 24 8 3 -7 4 -1 1 13 -2 14 -2 29 2 33 9 8 43 -61 43 -86 0 -10
4 -18 8 -18 5 0 21 -29 36 -65 16 -35 34 -69 42 -76 8 -6 14 -20 14 -30 0 -22
13 -31 34 -23 17 6 15 12 -40 131 -19 39 -34 74 -34 77 0 3 -12 31 -26 63 -15
32 -33 74 -41 93 -28 67 -31 75 -47 112 -9 20 -16 41 -16 47 0 11 -3 17 -32
76 -9 17 -19 52 -23 79 -5 35 -9 45 -16 35 -6 -10 -9 -6 -9 14 0 16 -5 37 -11
48 -7 15 -7 24 1 34 14 17 5 35 -18 35 -12 0 -13 3 -4 12 19 19 14 47 -14 73
-16 15 -24 31 -20 40 3 8 -2 23 -12 33 -9 10 -18 29 -20 43 -2 24 -9 39 -96
220 -25 53 -46 103 -46 111 0 8 -6 20 -12 27 -7 6 -13 15 -13 19 -2 26 -93
246 -122 294 -13 21 -23 43 -23 49 0 6 -19 43 -42 82 -23 40 -61 110 -85 156
-54 107 -63 114 -115 85z m432 -1056 c0 -19 -2 -20 -10 -8 -13 19 -13 30 0 30
6 0 10 -10 10 -22z m30 -64 c0 -8 -4 -12 -10 -9 -5 3 -10 13 -10 21 0 8 5 12
10 9 6 -3 10 -13 10 -21z m20 -44 c0 -11 -2 -20 -4 -20 -2 0 -6 9 -9 20 -3 11
-1 20 4 20 5 0 9 -9 9 -20z m107 -42 c-3 -8 -6 -5 -6 6 -1 11 2 17 5 13 3 -3
4 -12 1 -19z m-77 -14 c0 -8 -4 -14 -10 -14 -5 0 -10 9 -10 21 0 11 5 17 10
14 6 -3 10 -13 10 -21z m54 -118 c25 -51 46 -101 46 -110 0 -9 5 -16 10 -16 6
0 10 -9 10 -19 0 -11 4 -22 9 -25 5 -3 12 -18 16 -33 3 -15 11 -31 17 -34 7
-5 7 -12 -1 -25 -10 -18 -10 -18 -11 0 0 12 -5 16 -14 13 -10 -4 -13 -1 -9 9
3 8 -10 47 -30 87 -19 40 -45 95 -57 122 -11 28 -25 58 -30 67 -10 18 -14 58
-6 58 2 0 25 -42 50 -94z m136 -306 c0 -11 11 -38 25 -60 26 -41 29 -57 19
-84 -9 -22 -23 -10 -17 14 3 11 0 26 -6 34 -7 8 -11 18 -10 22 3 20 -2 34 -12
32 -7 -2 -18 12 -25 30 -13 30 -13 32 6 32 13 0 20 -7 20 -20z m-1150 1 c0 -6
-4 -13 -10 -16 -5 -3 -10 1 -10 9 0 9 5 16 10 16 6 0 10 -4 10 -9z m-230 -657
c0 -8 -4 -12 -10 -9 -5 3 -10 10 -10 16 0 5 5 9 10 9 6 0 10 -7 10 -16z m74
-129 c-4 -8 -10 -12 -15 -9 -14 8 -10 24 6 24 9 0 12 -6 9 -15z m301 -195 c3
-5 -1 -10 -9 -10 -9 0 -16 5 -16 10 0 6 4 10 9 10 6 0 13 -4 16 -10z m-110
-620 c3 -5 1 -10 -4 -10 -6 0 -11 5 -11 10 0 6 2 10 4 10 3 0 8 -4 11 -10z"/>
<path d="M1578 4043 c7 -3 16 -2 19 1 4 3 -2 6 -13 5 -11 0 -14 -3 -6 -6z"/>
<path d="M1390 3932 c0 -12 4 -22 9 -22 10 0 9 26 -2 36 -4 4 -7 -2 -7 -14z"/>
<path d="M1251 3712 c0 -15 3 -21 6 -14 2 6 8 10 12 8 4 -3 8 1 8 9 0 8 -6 16
-14 19 -9 4 -13 -3 -12 -22z"/>
<path d="M3017 3720 c-3 -14 -14 -20 -32 -20 -19 0 -26 4 -22 14 4 11 -2 12
-28 6 -18 -4 -37 -10 -43 -14 -6 -3 -12 -2 -14 3 -3 9 -94 -8 -138 -26 -14 -5
-42 -8 -62 -5 -31 3 -38 1 -38 -12 0 -10 -4 -14 -10 -11 -5 3 -10 2 -10 -4 0
-5 4 -11 9 -13 5 -1 13 -15 16 -30 5 -20 3 -28 -6 -28 -8 0 -22 -18 -31 -40
-17 -42 -53 -56 -64 -25 -10 25 -21 17 -22 -15 0 -17 3 -28 8 -25 4 3 11 -1
14 -7 5 -10 7 -10 12 0 9 20 33 14 31 -8 -1 -11 -7 -20 -14 -20 -7 0 -13 -9
-13 -19 0 -11 -6 -22 -12 -24 -7 -3 2 -3 20 0 31 5 32 5 33 -33 1 -22 0 -49
-1 -61 -1 -17 4 -23 19 -23 21 0 25 10 21 63 -2 40 28 35 46 -8 7 -19 14 -38
14 -43 0 -5 -37 -14 -81 -20 -46 -6 -86 -16 -91 -24 -7 -10 -11 -10 -15 0 -5
14 -53 17 -53 3 0 -5 -13 -11 -30 -13 -26 -4 -30 -2 -30 20 0 14 -5 22 -12 19
-7 -2 -12 -14 -12 -25 2 -25 0 -25 -44 -13 -25 8 -32 7 -32 -5 0 -8 -4 -14
-10 -14 -5 0 -10 5 -10 10 0 6 -11 10 -25 10 -17 0 -23 -4 -19 -14 4 -11 0
-13 -15 -9 -12 3 -21 3 -21 1 0 -11 32 -68 41 -73 5 -4 9 -17 9 -30 0 -14 17
-59 38 -102 71 -145 85 -188 71 -211 -11 -18 -10 -24 9 -40 14 -12 21 -28 19
-48 l-2 -28 140 -17 c77 -9 167 -19 200 -23 33 -3 114 -12 180 -21 66 -8 167
-20 225 -25 58 -5 134 -13 170 -19 36 -6 146 -20 245 -31 99 -11 227 -27 285
-35 58 -7 155 -19 215 -25 61 -7 180 -21 265 -32 85 -11 189 -23 230 -28 41
-4 89 -11 105 -14 17 -4 84 -10 150 -15 106 -8 120 -7 132 7 15 20 17 82 3 82
-6 0 -19 19 -29 43 -18 41 -123 268 -201 432 -21 44 -51 109 -68 145 -146 316
-205 425 -234 435 -9 3 -20 15 -23 26 -4 10 -15 19 -26 19 -10 0 -19 4 -19 10
0 5 -6 7 -13 4 -7 -2 -22 5 -32 16 -26 28 -99 60 -124 53 -23 -6 -27 6 -11 25
6 6 7 10 4 7 -4 -2 -16 2 -28 10 -26 19 -42 19 -27 2 8 -11 6 -18 -9 -32 -19
-17 -20 -17 -39 6 -11 13 -20 18 -21 11 0 -8 -15 -3 -41 14 -42 26 -58 22 -59
-15 0 -7 -6 -11 -15 -7 -15 5 -19 -8 -15 -47 5 -55 -47 -51 -115 7 -42 37 -56
38 -50 6 6 -29 -14 -24 -21 5 -5 21 -9 23 -20 14 -11 -9 -21 -9 -37 -1 -12 6
-57 14 -100 17 -62 5 -77 10 -73 21 3 8 1 14 -4 14 -12 0 -31 -36 -23 -44 3
-3 1 -6 -5 -6 -11 0 -16 13 -13 33 0 4 -6 7 -14 7 -8 0 -15 4 -15 10 0 5 -7 7
-15 4 -8 -4 -12 -10 -9 -15 9 -15 -25 -22 -41 -9 -12 10 -18 10 -29 1 -11 -9
-16 -9 -21 -1 -4 7 -15 10 -25 7 -11 -3 -21 2 -24 10 -5 13 -10 13 -33 -2 -17
-12 -28 -14 -31 -7 -2 7 -27 9 -73 5 -48 -4 -69 -3 -69 6 0 19 -17 12 -23 -9z
m-334 -87 c-7 -2 -19 -2 -25 0 -7 3 -2 5 12 5 14 0 19 -2 13 -5z m-35 -203
c15 0 15 -2 2 -10 -23 -15 -50 -12 -50 6 0 11 5 14 16 10 9 -3 23 -6 32 -6z"/>
<path d="M2705 3690 c-3 -5 -1 -10 4 -10 6 0 11 5 11 10 0 6 -2 10 -4 10 -3 0
-8 -4 -11 -10z"/>
<path d="M1180 3599 c0 -5 5 -7 10 -4 6 3 10 8 10 11 0 2 -4 4 -10 4 -5 0 -10
-5 -10 -11z"/>
<path d="M1165 3570 c-3 -5 -1 -10 4 -10 6 0 11 5 11 10 0 6 -2 10 -4 10 -3 0
-8 -4 -11 -10z"/>
<path d="M2525 3570 c-3 -5 1 -10 10 -10 9 0 13 5 10 10 -3 6 -8 10 -10 10 -2
0 -7 -4 -10 -10z"/>
<path d="M2545 3320 c5 -16 2 -20 -19 -20 -14 0 -26 -4 -26 -10 0 -5 14 -10
30 -10 28 0 30 3 28 30 -1 17 -6 30 -11 30 -5 0 -5 -9 -2 -20z"/>
<path d="M2063 2143 c-3 -10 -8 -21 -10 -25 -2 -4 3 -5 11 -2 9 3 16 15 16 25
0 24 -9 25 -17 2z"/>
<path d="M2004 2055 c-13 -28 -7 -40 13 -24 14 12 18 49 6 49 -5 0 -13 -11
-19 -25z"/>
<path d="M1967 1982 c-10 -10 -17 -22 -17 -27 0 -5 -7 -16 -16 -26 -16 -17
-11 -44 6 -34 12 8 59 105 51 105 -5 0 -15 -8 -24 -18z"/>
<path d="M1896 1874 c-9 -8 -16 -19 -16 -24 0 -8 -37 -68 -102 -162 -10 -15
-18 -30 -18 -33 0 -4 -11 -21 -25 -39 -14 -18 -25 -36 -25 -40 0 -4 -5 -12
-10 -19 -23 -27 -163 -255 -231 -376 -14 -25 -50 -84 -79 -131 -111 -178 -290
-480 -290 -490 0 -5 11 -10 24 -10 17 0 31 10 42 29 13 22 23 28 41 25 12 -2
23 0 23 6 0 12 47 13 52 1 5 -14 84 -17 101 -3 11 9 22 10 41 2 40 -15 49 -12
43 10 -4 15 0 20 14 20 10 0 19 -4 19 -9 0 -5 20 -9 45 -9 40 1 45 4 43 21 -2
16 3 20 27 22 17 1 38 -5 48 -13 15 -13 17 -13 17 0 0 8 9 23 20 33 16 15 22
15 35 5 8 -7 15 -9 15 -4 0 5 4 2 10 -6 5 -8 12 -11 16 -7 4 3 1 14 -7 23 -11
14 -10 16 17 13 49 -4 60 0 74 26 11 21 20 24 59 24 67 -2 101 2 107 12 3 5
16 2 30 -7 22 -15 29 -13 25 9 -2 12 44 8 57 -5 10 -10 17 -10 34 1 17 10 22
10 29 0 6 -10 11 -10 22 0 11 8 17 9 22 1 4 -6 16 -8 28 -4 34 11 107 12 114
1 3 -5 9 -3 14 4 7 11 12 11 27 2 16 -9 22 -8 35 8 21 24 32 24 56 -2 25 -27
38 -7 17 26 -19 28 -20 29 -47 15 -11 -6 -19 -7 -19 -1 0 9 -36 18 -95 25 -16
2 -33 4 -36 5 -3 1 -21 15 -38 32 -25 24 -36 28 -44 19 -9 -9 -7 -15 7 -26 20
-14 20 -14 0 -14 -11 0 -29 7 -40 15 -17 13 -17 14 -1 15 9 0 17 5 17 10 0 6
-8 11 -17 12 -45 4 -69 2 -74 -6 -4 -5 -17 -1 -30 8 -27 19 -43 21 -33 4 4 -6
-3 -4 -17 5 -16 12 -44 17 -85 17 -44 0 -65 5 -75 16 -8 10 -23 14 -38 11 -14
-3 -51 -1 -81 4 -30 5 -68 11 -85 13 -69 7 -132 20 -163 33 -20 8 -46 11 -63
8 -35 -8 -36 -4 -5 30 25 27 46 26 46 -1 0 -17 70 -20 88 -2 8 8 15 8 27 -2
14 -12 18 -11 26 1 18 29 13 31 -56 33 -28 1 -30 4 -29 36 0 19 4 44 9 55 9
19 8 20 -18 2 -36 -23 -38 -22 -25 14 7 21 15 28 25 24 12 -4 14 1 11 24 -2
17 -1 28 4 25 4 -3 8 0 8 5 0 6 11 21 25 33 15 13 23 28 20 38 -3 9 6 31 20
50 14 19 25 38 25 43 0 5 15 32 34 60 18 29 40 64 47 79 54 104 65 123 72 126
4 2 7 8 7 14 0 5 9 23 20 39 12 15 26 43 32 61 6 18 17 40 25 50 19 21 0 33
-21 12z m-76 -1139 c0 -8 -7 -15 -16 -15 -14 0 -14 3 -4 15 7 8 14 15 16 15 2
0 4 -7 4 -15z m-136 -57 c-3 -4 -11 -5 -19 -2 -11 5 -12 9 -2 19 12 13 31 -1
21 -17z m-124 -28 c0 -5 -5 -10 -11 -10 -5 0 -7 5 -4 10 3 6 8 10 11 10 2 0 4
-4 4 -10z"/>
<path d="M1545 1550 c-3 -5 -1 -10 4 -10 6 0 11 5 11 10 0 6 -2 10 -4 10 -3 0
-8 -4 -11 -10z"/>
<path d="M900 1451 c0 -5 7 -11 14 -14 10 -4 13 -1 9 9 -6 15 -23 19 -23 5z"/>
<path d="M947 1437 c-3 -7 -2 -19 3 -26 5 -9 9 -8 14 5 4 9 3 21 -2 26 -6 6
-12 4 -15 -5z"/>
<path d="M1480 1429 c0 -5 5 -7 10 -4 6 3 10 8 10 11 0 2 -4 4 -10 4 -5 0 -10
-5 -10 -11z"/>
<path d="M956 1371 c-4 -5 3 -15 15 -21 27 -15 31 -10 9 13 -11 11 -20 14 -24
8z"/>
<path d="M1040 1350 c0 -5 -5 -10 -11 -10 -6 0 -17 -7 -25 -15 -24 -23 7 -20
34 4 24 20 28 31 12 31 -5 0 -10 -4 -10 -10z"/>
<path d="M1405 1320 c3 -5 1 -10 -5 -10 -17 0 -70 -56 -70 -75 0 -14 -3 -15
-14 -6 -18 15 1 71 23 71 11 0 12 3 4 11 -13 13 -60 -28 -55 -49 2 -8 -4 -24
-12 -37 -20 -30 -20 -39 -1 -32 8 4 17 2 20 -3 4 -6 2 -10 -4 -10 -10 0 -27
-38 -23 -52 1 -5 -5 -8 -13 -8 -8 0 -15 9 -15 19 0 11 -6 21 -12 24 -10 3 -10
9 -1 25 8 13 9 23 3 27 -6 3 -10 -1 -10 -9 0 -9 -3 -16 -7 -16 -13 0 -56 50
-44 50 6 0 11 5 11 11 0 8 -4 8 -15 -1 -17 -14 -39 -4 -31 15 5 14 -30 52 -40
42 -10 -9 6 -28 18 -21 8 5 9 -3 5 -23 -4 -19 0 -38 9 -52 19 -27 10 -27 -16
-1 -11 11 -20 31 -20 45 0 30 -16 33 -25 5 -3 -11 -13 -20 -21 -20 -11 0 -13
6 -8 23 4 12 12 25 18 29 6 4 7 10 3 15 -5 4 -11 3 -15 -3 -4 -6 -17 -14 -29
-18 -13 -4 -23 -12 -23 -17 0 -5 -7 -9 -15 -9 -10 0 -15 -10 -15 -34 0 -19 -6
-36 -12 -39 -10 -3 -10 -7 1 -20 9 -12 13 -42 12 -97 -1 -52 2 -80 9 -80 6 0
8 -5 4 -11 -4 -8 -9 -7 -15 2 -4 7 -11 10 -15 6 -4 -3 -2 -13 4 -20 8 -10 8
-17 1 -24 -8 -8 -8 -13 0 -17 16 -10 13 -36 -4 -36 -11 0 -14 -7 -9 -25 4 -15
2 -25 -4 -25 -6 0 -2 -26 10 -62 23 -68 55 -128 68 -128 4 0 21 21 36 48 44
72 88 144 144 232 78 125 117 215 97 225 -7 3 1 3 16 0 20 -4 26 -2 22 5 -4 6
2 21 13 33 11 12 29 41 41 65 12 23 26 42 31 42 6 0 10 7 10 15 0 8 -5 15 -11
15 -5 0 -7 -4 -4 -10z m-315 -114 c0 -3 -4 -8 -10 -11 -5 -3 -10 -1 -10 4 0 6
5 11 10 11 6 0 10 -2 10 -4z"/>
<path d="M1220 1300 c0 -5 5 -10 10 -10 6 0 10 5 10 10 0 6 -4 10 -10 10 -5 0
-10 -4 -10 -10z"/>
<path d="M1195 1230 c3 -5 8 -10 11 -10 2 0 4 5 4 10 0 6 -5 10 -11 10 -5 0
-7 -4 -4 -10z"/>
<path d="M1615 1120 c3 -5 11 -10 16 -10 6 0 7 5 4 10 -3 6 -11 10 -16 10 -6
0 -7 -4 -4 -10z"/>
<path d="M900 890 c0 -5 5 -10 11 -10 5 0 7 5 4 10 -3 6 -8 10 -11 10 -2 0 -4
-4 -4 -10z"/>
<path d="M2576 746 c3 -8 12 -12 20 -9 17 6 9 23 -11 23 -8 0 -12 -6 -9 -14z"/>
<path d="M2620 751 c0 -5 7 -11 15 -15 9 -3 15 0 15 9 0 8 -7 15 -15 15 -8 0
-15 -4 -15 -9z"/>
<path d="M1986 735 c4 -8 8 -15 10 -15 2 0 4 7 4 15 0 8 -4 15 -10 15 -5 0 -7
-7 -4 -15z"/>
<path d="M1880 730 c0 -5 7 -10 16 -10 8 0 12 5 9 10 -3 6 -10 10 -16 10 -5 0
-9 -4 -9 -10z"/>
<path d="M1936 711 c-4 -5 -2 -12 3 -15 5 -4 12 -2 15 3 4 5 2 12 -3 15 -5 4
-12 2 -15 -3z"/>
<path d="M1855 680 c-3 -5 1 -10 9 -10 9 0 16 5 16 10 0 6 -4 10 -9 10 -6 0
-13 -4 -16 -10z"/>
<path d="M2000 680 c0 -5 7 -7 15 -4 8 4 15 8 15 10 0 2 -7 4 -15 4 -8 0 -15
-4 -15 -10z"/>
<path d="M1710 655 c0 -8 5 -15 10 -15 6 0 10 7 10 15 0 8 -4 15 -10 15 -5 0
-10 -7 -10 -15z"/>
<path d="M1386 585 c4 -8 10 -15 15 -15 5 0 9 7 9 15 0 8 -7 15 -15 15 -9 0
-12 -6 -9 -15z"/>
<path d="M1248 563 c7 -3 16 -2 19 1 4 3 -2 6 -13 5 -11 0 -14 -3 -6 -6z"/>
</g>
</svg>
