{
  "accessors": [
    {
      "bufferView": 2,
      "componentType": 5126,
      "count": 1084,
      "max": [
        0.05841004103422165,
        0.04718906432390213,
        0.1404545158147812
      ],
      "min": [
        -0.04915715381503105,
        -0.044966261833906174,
        0.0010471210116520524
      ],
      "type": "VEC3"
    },
    {
      "bufferView": 2,
      "byteOffset": 13008,
      "componentType": 5126,
      "count": 1084,
      "max": [
        0.999992311000824,
        0.9978166818618774,
        1.0
      ],
      "min": [
        -0.9999871253967285,
        -0.9978166818618774,
        -0.999995231628418
      ],
      "type": "VEC3"
    },
    {
      "bufferView": 1,
      "componentType": 5126,
      "count": 1084,
      "max": [
        0.9069554805755615,
        0.905784010887146
      ],
      "min": [
        0.0,
        0.0
      ],
      "type": "VEC2"
    },
    {
      "bufferView": 0,
      "componentType": 5125,
      "count": 5208,
      "type": "SCALAR"
    },
    {
      "bufferView": 2,
      "byteOffset": 26016,
      "componentType": 5126,
      "count": 903,
      "max": [
        0.013596104457974434,
        0.013596107251942158,
        0.10828594863414764
      ],
      "min": [
        -0.013596096076071262,
        -0.01359609980136156,
        -0.011748595163226128
      ],
      "type": "VEC3"
    },
    {
      "bufferView": 2,
      "byteOffset": 36852,
      "componentType": 5126,
      "count": 903,
      "max": [
        1.0,
        1.0,
        1.0
      ],
      "min": [
        -1.0,
        -1.0,
        -1.0
      ],
      "type": "VEC3"
    },
    {
      "bufferView": 1,
      "byteOffset": 8672,
      "componentType": 5126,
      "count": 903,
      "max": [
        0.9892375469207764,
        0.7923266291618347
      ],
      "min": [
        0.08358769863843918,
        0.0
      ],
      "type": "VEC2"
    },
    {
      "bufferView": 0,
      "byteOffset": 20832,
      "componentType": 5125,
      "count": 3456,
      "type": "SCALAR"
    },
    {
      "bufferView": 2,
      "byteOffset": 47688,
      "componentType": 5126,
      "count": 893,
      "max": [
        0.012334908358752728,
        0.012334910221397877,
        0.19859793782234192
      ],
      "min": [
        -0.01233490090817213,
        -0.012334905564785004,
        -0.011748595163226128
      ],
      "type": "VEC3"
    },
    {
      "bufferView": 2,
      "byteOffset": 58404,
      "componentType": 5126,
      "count": 893,
      "max": [
        1.0,
        1.0,
        1.0
      ],
      "min": [
        -1.0,
        -1.0,
        -1.0
      ],
      "type": "VEC3"
    },
    {
      "bufferView": 1,
      "byteOffset": 15896,
      "componentType": 5126,
      "count": 893,
      "max": [
        0.9627362489700317,
        0.9886317253112793
      ],
      "min": [
        1.2733231136152767e-09,
        0.0
      ],
      "type": "VEC2"
    },
    {
      "bufferView": 0,
      "byteOffset": 34656,
      "componentType": 5125,
      "count": 3456,
      "type": "SCALAR"
    },
    {
      "bufferView": 2,
      "byteOffset": 69120,
      "componentType": 5126,
      "count": 1729,
      "max": [
        0.05626252666115761,
        0.05626252666115761,
        0.15778830647468567
      ],
      "min": [
        -0.05626252666115761,
        -0.05626252666115761,
        0.0
      ],
      "type": "VEC3"
    },
    {
      "bufferView": 2,
      "byteOffset": 89868,
      "componentType": 5126,
      "count": 1729,
      "max": [
        0.9978742599487305,
        0.9978743195533752,
        0.9976179003715515
      ],
      "min": [
        -0.9978742599487305,
        -0.9978742599487305,
        -0.9967995882034302
      ],
      "type": "VEC3"
    },
    {
      "bufferView": 1,
      "byteOffset": 23040,
      "componentType": 5126,
      "count": 1729,
      "max": [
        0.984292209148407,
        0.987880527973175
      ],
      "min": [
        0.02972494438290596,
        0.0
      ],
      "type": "VEC2"
    },
    {
      "bufferView": 0,
      "byteOffset": 48480,
      "componentType": 5125,
      "count": 7284,
      "type": "SCALAR"
    },
    {
      "bufferView": 2,
      "byteOffset": 110616,
      "componentType": 5126,
      "count": 2113,
      "max": [
        0.035689499229192734,
        0.03568951040506363,
        0.12854018807411194
      ],
      "min": [
        -0.03568947687745094,
        -0.03568948805332184,
        0.005365661345422268
      ],
      "type": "VEC3"
    },
    {
      "bufferView": 2,
      "byteOffset": 135972,
      "componentType": 5126,
      "count": 2113,
      "max": [
        1.0,
        1.0,
        1.0
      ],
      "min": [
        -1.0,
        -1.0,
        -1.0
      ],
      "type": "VEC3"
    },
    {
      "bufferView": 1,
      "byteOffset": 36872,
      "componentType": 5126,
      "count": 2113,
      "max": [
        0.9999660849571228,
        1.0000001192092896
      ],
      "min": [
        0.002216102322563529,
        -1.4770873413283425e-09
      ],
      "type": "VEC2"
    },
    {
      "bufferView": 0,
      "byteOffset": 77616,
      "componentType": 5125,
      "count": 9216,
      "type": "SCALAR"
    },
    {
      "bufferView": 2,
      "byteOffset": 161328,
      "componentType": 5126,
      "count": 1666,
      "max": [
        0.046688105911016464,
        0.046688105911016464,
        0.12190485745668411
      ],
      "min": [
        -0.046688105911016464,
        -0.046688105911016464,
        0.0
      ],
      "type": "VEC3"
    },
    {
      "bufferView": 2,
      "byteOffset": 181320,
      "componentType": 5126,
      "count": 1666,
      "max": [
        0.9999950528144836,
        0.9999950528144836,
        0.9970478415489197
      ],
      "min": [
        -0.9999950528144836,
        -0.9999950528144836,
        -0.9953857660293579
      ],
      "type": "VEC3"
    },
    {
      "bufferView": 1,
      "byteOffset": 53776,
      "componentType": 5126,
      "count": 1666,
      "max": [
        0.9916347861289978,
        0.8921929001808167
      ],
      "min": [
        0.08358769118785858,
        -1.3072046778361823e-09
      ],
      "type": "VEC2"
    },
    {
      "bufferView": 0,
      "byteOffset": 114480,
      "componentType": 5125,
      "count": 7284,
      "type": "SCALAR"
    },
    {
      "bufferView": 2,
      "byteOffset": 201312,
      "componentType": 5126,
      "count": 601,
      "max": [
        0.032477252185344696,
        0.032477304339408875,
        0.016784461215138435
      ],
      "min": [
        -0.03247735649347305,
        -0.032477304339408875,
        -0.016784463077783585
      ],
      "type": "VEC3"
    },
    {
      "bufferView": 2,
      "byteOffset": 208524,
      "componentType": 5126,
      "count": 601,
      "max": [
        0.98941969871521,
        0.9894196391105652,
        1.0
      ],
      "min": [
        -0.9894194006919861,
        -0.9894196391105652,
        -1.0
      ],
      "type": "VEC3"
    },
    {
      "bufferView": 1,
      "byteOffset": 67104,
      "componentType": 5126,
      "count": 601,
      "max": [
        0.9943609237670898,
        0.9797104001045227
      ],
      "min": [
        0.18226294219493866,
        0.19201356172561646
      ],
      "type": "VEC2"
    },
    {
      "bufferView": 0,
      "byteOffset": 143616,
      "componentType": 5125,
      "count": 2592,
      "type": "SCALAR"
    },
    {
      "bufferView": 2,
      "byteOffset": 215736,
      "componentType": 5126,
      "count": 674,
      "max": [
        0.017115605995059013,
        0.011290846392512321,
        0.16459108889102936
      ],
      "min": [
        -0.011267702095210552,
        -0.011290852911770344,
        -0.0038225604221224785
      ],
      "type": "VEC3"
    },
    {
      "bufferView": 2,
      "byteOffset": 223824,
      "componentType": 5126,
      "count": 674,
      "max": [
        0.9999996423721313,
        1.0,
        1.0
      ],
      "min": [
        -0.9999997019767761,
        -1.0,
        -1.0
      ],
      "type": "VEC3"
    },
    {
      "bufferView": 1,
      "byteOffset": 71912,
      "componentType": 5126,
      "count": 674,
      "max": [
        0.7592697739601135,
        0.9271149635314941
      ],
      "min": [
        0.16821123659610748,
        0.0
      ],
      "type": "VEC2"
    },
    {
      "bufferView": 0,
      "byteOffset": 153984,
      "componentType": 5125,
      "count": 2796,
      "type": "SCALAR"
    },
    {
      "bufferView": 2,
      "byteOffset": 231912,
      "componentType": 5126,
      "count": 2112,
      "max": [
        0.04590281844139099,
        0.045902833342552185,
        0.16532473266124725
      ],
      "min": [
        -0.045902788639068604,
        -0.0459028035402298,
        0.0
      ],
      "type": "VEC3"
    },
    {
      "bufferView": 2,
      "byteOffset": 257256,
      "componentType": 5126,
      "count": 2112,
      "max": [
        1.0,
        1.0,
        1.0
      ],
      "min": [
        -1.0,
        -1.0,
        -1.0
      ],
      "type": "VEC3"
    },
    {
      "bufferView": 1,
      "byteOffset": 77304,
      "componentType": 5126,
      "count": 2112,
      "max": [
        0.9912112355232239,
        0.9896321296691895
      ],
      "min": [
        7.521206990546148e-10,
        0.1233387365937233
      ],
      "type": "VEC2"
    },
    {
      "bufferView": 0,
      "byteOffset": 165168,
      "componentType": 5125,
      "count": 9216,
      "type": "SCALAR"
    }
  ],
  "asset": {
    "extras": {
      "author": "Alex Krush (https://sketchfab.com/Alex_Krush)",
      "license": "CC-BY-4.0 (http://creativecommons.org/licenses/by/4.0/)",
      "source": "https://sketchfab.com/3d-models/chemical-test-tubes-ce3fdd3279584c2eaf416894dd36a81e",
      "title": "Chemical Test Tubes"
    },
    "generator": "Sketchfab-15.66.0",
    "version": "2.0"
  },
  "bufferViews": [
    {
      "buffer": 0,
      "byteLength": 202032,
      "name": "floatBufferViews",
      "target": 34963
    },
    {
      "buffer": 0,
      "byteLength": 94200,
      "byteOffset": 202032,
      "byteStride": 8,
      "name": "floatBufferViews",
      "target": 34962
    },
    {
      "buffer": 0,
      "byteLength": 282600,
      "byteOffset": 296232,
      "byteStride": 12,
      "name": "floatBufferViews",
      "target": 34962
    }
  ],
  "buffers": [
    {
      "byteLength": 578832,
      "uri": "scene.bin"
    }
  ],
  "extensionsUsed": [
    "KHR_materials_emissive_strength",
    "KHR_materials_specular"
  ],
  "materials": [
    {
      "alphaMode": "BLEND",
      "doubleSided": true,
      "extensions": {
        "KHR_materials_emissive_strength": {
          "emissiveStrength": 3.0
        },
        "KHR_materials_specular": {
          "specularColorFactor": [
            1.0,
            1.0,
            1.0
          ],
          "specularFactor": 0.27176163387531777
        }
      },
      "name": "Glass",
      "pbrMetallicRoughness": {
        "baseColorFactor": [
          0.23197144190921726,
          0.22311332243561138,
          0.19773738647655734,
          0.3
        ],
        "metallicFactor": 0.9209901441082512,
        "roughnessFactor": 0.19999999999999996
      }
    },
    {
      "doubleSided": true,
      "name": "Polystyrene.002",
      "pbrMetallicRoughness": {
        "baseColorFactor": [
          0.8,
          0.8,
          0.8,
          1.0
        ],
        "metallicFactor": 0.05,
        "roughnessFactor": 0.7960392194562886
      }
    }
  ],
  "meshes": [
    {
      "name": "tube_8_Glass_0",
      "primitives": [
        {
          "attributes": {
            "NORMAL": 1,
            "POSITION": 0,
            "TEXCOORD_0": 2
          },
          "indices": 3,
          "material": 0,
          "mode": 4
        }
      ]
    },
    {
      "name": "tube_3_Glass_0",
      "primitives": [
        {
          "attributes": {
            "NORMAL": 5,
            "POSITION": 4,
            "TEXCOORD_0": 6
          },
          "indices": 7,
          "material": 0,
          "mode": 4
        }
      ]
    },
    {
      "name": "tube_4_Glass_0",
      "primitives": [
        {
          "attributes": {
            "NORMAL": 9,
            "POSITION": 8,
            "TEXCOORD_0": 10
          },
          "indices": 11,
          "material": 0,
          "mode": 4
        }
      ]
    },
    {
      "name": "tube_2_Glass_0",
      "primitives": [
        {
          "attributes": {
            "NORMAL": 13,
            "POSITION": 12,
            "TEXCOORD_0": 14
          },
          "indices": 15,
          "material": 0,
          "mode": 4
        }
      ]
    },
    {
      "name": "tube_7_Glass_0",
      "primitives": [
        {
          "attributes": {
            "NORMAL": 17,
            "POSITION": 16,
            "TEXCOORD_0": 18
          },
          "indices": 19,
          "material": 0,
          "mode": 4
        }
      ]
    },
    {
      "name": "tube_1_Glass_0",
      "primitives": [
        {
          "attributes": {
            "NORMAL": 21,
            "POSITION": 20,
            "TEXCOORD_0": 22
          },
          "indices": 23,
          "material": 0,
          "mode": 4
        }
      ]
    },
    {
      "name": "tube_5_Polystyrene.002_0",
      "primitives": [
        {
          "attributes": {
            "NORMAL": 25,
            "POSITION": 24,
            "TEXCOORD_0": 26
          },
          "indices": 27,
          "material": 1,
          "mode": 4
        }
      ]
    },
    {
      "name": "tube_5_Glass_0",
      "primitives": [
        {
          "attributes": {
            "NORMAL": 29,
            "POSITION": 28,
            "TEXCOORD_0": 30
          },
          "indices": 31,
          "material": 0,
          "mode": 4
        }
      ]
    },
    {
      "name": "tube_6_Glass_0",
      "primitives": [
        {
          "attributes": {
            "NORMAL": 33,
            "POSITION": 32,
            "TEXCOORD_0": 34
          },
          "indices": 35,
          "material": 0,
          "mode": 4
        }
      ]
    }
  ],
  "nodes": [
    {
      "children": [
        1
      ],
      "matrix": [
        1.0,
        0.0,
        0.0,
        0.0,
        0.0,
        2.220446049250313e-16,
        -1.0,
        0.0,
        0.0,
        1.0,
        2.220446049250313e-16,
        0.0,
        0.0,
        0.0,
        0.0,
        1.0
      ],
      "name": "Sketchfab_model"
    },
    {
      "children": [
        2
      ],
      "matrix": [
        0.009999999776482582,
        0.0,
        0.0,
        0.0,
        0.0,
        0.0,
        0.009999999776482582,
        0.0,
        0.0,
        -0.009999999776482582,
        0.0,
        0.0,
        0.0,
        0.0,
        0.0,
        1.0
      ],
      "name": "82339e861e6c4d0c996af1e6582fec1d.fbx"
    },
    {
      "children": [
        3,
        5,
        7,
        9,
        11,
        13,
        15,
        18
      ],
      "name": "RootNode"
    },
    {
      "children": [
        4
      ],
      "matrix": [
        100.0,
        0.0,
        0.0,
        0.0,
        0.0,
        -2.8212996916465727e-05,
        -99.99999999999602,
        0.0,
        0.0,
        99.99999999999602,
        -2.8212996916465727e-05,
        0.0,
        50.856441497802734,
        -0.00030205119401216507,
        -0.00040978193283081055,
        1.0
      ],
      "name": "tube_8"
    },
    {
      "mesh": 0,
      "name": "tube_8_Glass_0"
    },
    {
      "children": [
        6
      ],
      "matrix": [
        100.0,
        0.0,
        0.0,
        0.0,
        -0.0,
        -2.8212996916465727e-05,
        -99.99999999999602,
        0.0,
        0.0,
        99.99999999999602,
        -2.8212996916465727e-05,
        0.0,
        -9.249024391174316,
        1.1745569705963135,
        -0.00040978193283081055,
        1.0
      ],
      "name": "tube_3"
    },
    {
      "mesh": 1,
      "name": "tube_3_Glass_0"
    },
    {
      "children": [
        8
      ],
      "matrix": [
        100.0,
        0.0,
        0.0,
        0.0,
        -0.0,
        -2.8212996916465727e-05,
        -99.99999999999602,
        0.0,
        0.0,
        99.99999999999602,
        -2.8212996916465727e-05,
        0.0,
        -0.0020310282707214355,
        1.1745569705963135,
        -0.00040978193283081055,
        1.0
      ],
      "name": "tube_4"
    },
    {
      "mesh": 2,
      "name": "tube_4_Glass_0"
    },
    {
      "children": [
        10
      ],
      "matrix": [
        100.0,
        0.0,
        0.0,
        0.0,
        -0.0,
        -2.8212996916465727e-05,
        -99.99999999999602,
        0.0,
        0.0,
        99.99999999999602,
        -2.8212996916465727e-05,
        0.0,
        -23.11951446533203,
        -0.00030205119401216507,
        -0.00040978193283081055,
        1.0
      ],
      "name": "tube_2"
    },
    {
      "mesh": 3,
      "name": "tube_2_Glass_0"
    },
    {
      "children": [
        12
      ],
      "matrix": [
        100.0,
        0.0,
        0.0,
        0.0,
        0.0,
        -2.8212996916465727e-05,
        -99.99999999999602,
        0.0,
        0.0,
        99.99999999999602,
        -2.8212996916465727e-05,
        0.0,
        36.98595428466797,
        -0.4637005627155304,
        -0.00040978193283081055,
        1.0
      ],
      "name": "tube_7"
    },
    {
      "mesh": 4,
      "name": "tube_7_Glass_0"
    },
    {
      "children": [
        14
      ],
      "matrix": [
        100.0,
        0.0,
        0.0,
        0.0,
        -0.0,
        -2.8212996916465727e-05,
        -99.99999999999602,
        0.0,
        0.0,
        99.99999999999602,
        -2.8212996916465727e-05,
        0.0,
        -38.83942794799805,
        -0.00030205119401216507,
        -0.00040978193283081055,
        1.0
      ],
      "name": "tube_1"
    },
    {
      "mesh": 5,
      "name": "tube_1_Glass_0"
    },
    {
      "children": [
        16,
        17
      ],
      "matrix": [
        100.0,
        0.0,
        0.0,
        0.0,
        0.0,
        -2.8212996916465727e-05,
        -99.99999999999602,
        0.0,
        0.0,
        99.99999999999602,
        -2.8212996916465727e-05,
        0.0,
        12.019063949584961,
        1.6718734502792358,
        -0.00040978193283081055,
        1.0
      ],
      "name": "tube_5"
    },
    {
      "mesh": 6,
      "name": "tube_5_Polystyrene.002_0"
    },
    {
      "mesh": 7,
      "name": "tube_5_Glass_0"
    },
    {
      "children": [
        19
      ],
      "matrix": [
        100.0,
        0.0,
        0.0,
        0.0,
        0.0,
        -2.8212996916465727e-05,
        -99.99999999999602,
        0.0,
        0.0,
        99.99999999999602,
        -2.8212996916465727e-05,
        0.0,
        23.115453720092773,
        -0.00030205119401216507,
        -0.00040978193283081055,
        1.0
      ],
      "name": "tube_6"
    },
    {
      "mesh": 8,
      "name": "tube_6_Glass_0"
    }
  ],
  "scene": 0,
  "scenes": [
    {
      "name": "Sketchfab_Scene",
      "nodes": [
        0
      ]
    }
  ]
}
