{
  "accessors": [
    {
      "bufferView": 1,
      "componentType": 5126,
      "count": 54688,
      "max": [
        3.6198983192443848,
        0.9703128337860107,
        7.879726886749268
      ],
      "min": [
        -3.61942195892334,
        -1.706607699394226,
        -8.006155967712402
      ],
      "type": "VEC3"
    },
    {
      "bufferView": 1,
      "byteOffset": 656256,
      "componentType": 5126,
      "count": 54688,
      "max": [
        0.9999849796295166,
        0.9999854564666748,
        0.9999892711639404
      ],
      "min": [
        -0.9999898076057434,
        -0.9999437928199768,
        -0.9999997019767761
      ],
      "type": "VEC3"
    },
    {
      "bufferView": 0,
      "componentType": 5125,
      "count": 305034,
      "type": "SCALAR"
    }
  ],
  "asset": {
    "extras": {
      "author": "Ruslan Gadzhiev (https://sketchfab.com/ruslangadzhiev)",
      "license": "CC-BY-4.0 (http://creativecommons.org/licenses/by/4.0/)",
      "source": "https://sketchfab.com/3d-models/male-human-skeleton-zbrush-anatomy-study-665890c542be433fb18ef235cf987cef",
      "title": "Male Human Skeleton - ZBrush - Anatomy Study"
    },
    "generator": "Sketchfab-13.85.0",
    "version": "2.0"
  },
  "bufferViews": [
    {
      "buffer": 0,
      "byteLength": 1220136,
      "name": "floatBufferViews",
      "target": 34963
    },
    {
      "buffer": 0,
      "byteLength": 1312512,
      "byteOffset": 1220136,
      "byteStride": 12,
      "name": "floatBufferViews",
      "target": 34962
    }
  ],
  "buffers": [
    {
      "byteLength": 2532648,
      "uri": "f.bin"
    }
  ],
  "extensionsRequired": [
    "KHR_materials_pbrSpecularGlossiness"
  ],
  "extensionsUsed": [
    "KHR_materials_pbrSpecularGlossiness"
  ],
  "materials": [
    {
      "doubleSided": true,
      "extensions": {
        "KHR_materials_pbrSpecularGlossiness": {
          "diffuseFactor": [
            0.6038273388553378,
            0.533276404010505,
            0.30498731406988616,
            1.0
          ],
          "glossinessFactor": 0.46,
          "specularFactor": [
            0.11,
            0.11,
            0.11
          ]
        }
      },
      "name": "material_0"
    }
  ],
  "meshes": [
    {
      "name": "Object_0",
      "primitives": [
        {
          "attributes": {
            "NORMAL": 1,
            "POSITION": 0
          },
          "indices": 2,
          "material": 0,
          "mode": 4
        }
      ]
    }
  ],
  "nodes": [
    {
      "children": [
        1
      ],
      "matrix": [
        1.0,
        0.0,
        0.0,
        0.0,
        0.0,
        2.220446049250313e-16,
        -1.0,
        0.0,
        0.0,
        1.0,
        2.220446049250313e-16,
        0.0,
        0.0,
        0.0,
        0.0,
        1.0
      ],
      "name": "Sketchfab_model"
    },
    {
      "children": [
        2
      ],
      "name": "male_skeleton_first_anatomy_study.OBJ.cleaner.gles"
    },
    {
      "mesh": 0,
      "name": "Object_2"
    }
  ],
  "scene": 0,
  "scenes": [
    {
      "name": "Sketchfab_Scene",
      "nodes": [
        0
      ]
    }
  ]
}
